<svg id="レイヤー_1" data-name="レイヤー 1" xmlns="http://www.w3.org/2000/svg" viewBox="0 0 1121 532"><defs><style>.cls-1{fill:none;stroke:#000;stroke-miterlimit:10;stroke-width:6px;}</style></defs><title>logo</title><path d="M206.2,242.62c-4.9,7.56-10.3,17.21-10.3,27.87,0,2.3,0,13.32,11.24,13.32,11.52,0,13.82-11.88,13.82-18.94,0-12-4.61-22.61-6-25.85l7.77-3.67c7.06,14,12.68,20.16,19.8,26.14l-5,6.69a53.9,53.9,0,0,1-10.45-13.82,55.57,55.57,0,0,1,1.16,11.16c0,21.74-12.1,26.78-21,26.78-8.57,0-19.3-5.83-19.3-19.94,0-8.5,2.88-15.91,5.48-22.11a65.55,65.55,0,0,1-9.51,3.82l-3.82-7.63c8-1.66,12.25-3.6,19.45-9.22Z"/><path d="M298.51,293c-8.5,0-12.25-1-15.85-2.88a13.71,13.71,0,0,1-7.34-12.31c0-9,7-13.61,14.9-18.29a22.62,22.62,0,0,1-4.24-6.48c-1-2.38-1.37-4.46-3.68-18.22l9.22-1.36c.07,4,.14,11.66,2.09,17.06a8.77,8.77,0,0,0,4.18,4.9c8.28-3.89,9.21-4.32,18.07-8.5l2.66,8.79a108.34,108.34,0,0,0-26.64,11.37c-3.24,2-8.57,5.69-8.57,10.51,0,5.19,5.69,7.71,13.25,7.71s15-1.44,22.25-3.24v9.22A130.3,130.3,0,0,1,298.51,293Z"/><path d="M839.2,242.62c-4.9,7.56-10.3,17.21-10.3,27.87,0,2.3,0,13.32,11.24,13.32,11.52,0,13.82-11.88,13.82-18.94,0-12-4.61-22.61-6-25.85l7.77-3.67c7.06,14,12.68,20.16,19.8,26.14l-5,6.69a53.9,53.9,0,0,1-10.45-13.82,55.57,55.57,0,0,1,1.16,11.16c0,21.74-12.1,26.78-21,26.78-8.57,0-19.3-5.83-19.3-19.94,0-8.5,2.88-15.91,5.48-22.11a65.55,65.55,0,0,1-9.51,3.82l-3.82-7.63c8-1.66,12.25-3.6,19.45-9.22Z"/><path d="M931.51,293c-8.5,0-12.25-1-15.85-2.88a13.71,13.71,0,0,1-7.34-12.31c0-9,7-13.61,14.9-18.29a22.62,22.62,0,0,1-4.24-6.48c-1-2.38-1.37-4.46-3.68-18.22l9.22-1.36c.07,4,.14,11.66,2.09,17.06a8.77,8.77,0,0,0,4.18,4.9c8.28-3.89,9.21-4.32,18.07-8.5l2.66,8.79a108.34,108.34,0,0,0-26.64,11.37c-3.24,2-8.57,5.69-8.57,10.51,0,5.19,5.69,7.71,13.25,7.71s15-1.44,22.25-3.24v9.22A130.3,130.3,0,0,1,931.51,293Z"/><line class="cls-1" x1="743" y1="266" x2="398" y2="266"/></svg>